<svg width="35" height="27" viewBox="0 0 35 27" fill="none" xmlns="http://www.w3.org/2000/svg">
<path d="M20.8381 26.4039C23.5995 26.4039 25.8848 24.1469 25.381 21.4318C25.0607 19.7056 24.5735 18.0132 23.9247 16.381C22.6614 13.2034 20.8098 10.3161 18.4757 7.88405C16.1415 5.45199 13.3704 3.52278 10.3207 2.20656C8.81485 1.55668 7.25566 1.06252 5.66555 0.728743C2.96303 0.161458 0.701172 2.45147 0.701172 5.21289V21.4039C0.701172 24.1653 2.93975 26.4039 5.70117 26.4039H20.8381Z" fill="#003623"/>
<g style="mix-blend-mode:multiply">
<path d="M14.4021 26.4039C11.6407 26.4039 9.3554 24.1469 9.85924 21.4318C10.1796 19.7056 10.6667 18.0132 11.3156 16.381C12.5788 13.2034 14.4304 10.3161 16.7646 7.88405C19.0987 5.45199 21.8698 3.52278 24.9196 2.20656C26.4254 1.55668 27.9846 1.06252 29.5747 0.728743C32.2772 0.161458 34.5391 2.45147 34.5391 5.21289V21.4039C34.5391 24.1653 32.3005 26.4039 29.5391 26.4039H14.4021Z" fill="#49BEFF"/>
</g>
</svg>
